Coordinates
version=1
nRows=31
nColumns=33
inDegrees=yes

Units are S.I. units (second, meters, Newtons, ...)
Angles are in degrees.

endheader
time	ground_thorax_rot_x	ground_thorax_rot_y	ground_thorax_rot_z	ground_thorax_tx	ground_thorax_ty	ground_thorax_tz	clav_prot_r	clav_elev_r	scapula_abduction_r	scapula_elevation_r	scapula_upward_rot_r	scapula_winging_r	shoulder_elv_r	plane_of_elev_r	axial_rot_r	elbow_flexion_r	pro_sup_r	wrist_flex_r	wrist_dev_r	clav_prot_l	clav_elev_l	scapula_abduction_l	scapula_elevation_l	scapula_upward_rot_l	scapula_winging_l	shoulder_elv_l	plane_of_elev_l	axial_rot_l	elbow_flexion_l	pro_sup_l	wrist_flex_l	wrist_dev_l	
5.3500	41.412403	11.256720	12.764076	-171.130866	813.038249	2.713793	13.652346	42.138772	41.313764	45.000000	-23.584165	-1170.169658	-2816.526569	32.174999	47.168696	731.093934	8.508186	18.178647	11.355042	7.330893	-45.000000	-38.362090	45.000000	-45.000000	-628.906938	-3692.078612	134.312799	-180.000000	731.701445	36.391429	7.201902	-22.634700	
5.3600	41.410580	11.139297	12.642426	-172.957350	814.273576	2.661860	13.592343	42.073026	41.273546	45.000000	-23.631327	-1170.233468	-2816.407946	32.204687	47.094184	731.103094	8.061625	18.200320	11.318752	7.384459	-45.000000	-38.400565	45.000000	-45.000000	-628.697733	-3692.008203	134.328919	-180.000000	731.729789	36.297114	7.208907	-22.668747	
5.3700	41.410453	11.021720	12.516190	-174.752629	815.475843	2.616083	13.530755	42.009372	41.234167	45.000000	-23.662165	-1170.302678	-2816.298193	32.229139	47.026266	731.109528	7.643608	18.226589	11.274993	7.434648	-45.000000	-38.439295	45.000000	-45.000000	-628.492489	-3691.945044	134.344754	-180.000000	731.757320	36.179460	7.219446	-22.700900	
5.3800	41.411261	10.903868	12.387430	-176.520598	816.647990	2.577349	13.467070	41.947920	41.198116	45.000000	-23.677693	-1170.376527	-2816.197391	32.247474	46.969343	731.109555	7.250134	18.256217	11.222459	7.480269	-45.000000	-38.479860	45.000000	-45.000000	-628.290246	-3691.887505	134.360835	-180.000000	731.781598	36.045514	7.232699	-22.731793	
5.3900	41.407647	10.787595	12.261878	-178.264745	817.793389	2.546425	13.406310	41.891683	41.154695	45.000000	-23.704680	-1170.442879	-2816.094595	32.269658	46.935433	731.119478	6.873192	18.290963	11.164137	7.527393	-45.000000	-38.516067	45.000000	-45.000000	-628.094387	-3691.832618	134.381950	-180.000000	731.799763	35.901452	7.244956	-22.759095	
5.4000	41.397631	10.676681	12.148006	-179.987501	818.914720	2.523977	13.347921	41.841678	41.106380	45.000000	-23.748800	-1170.498002	-2815.990435	32.292501	46.921651	731.132029	6.506274	18.327860	11.104259	7.576519	-45.000000	-38.544731	45.000000	-45.000000	-627.903930	-3691.779788	134.410534	-180.000000	731.807604	35.754753	7.254088	-22.782330	
5.4100	41.379224	10.572699	12.046424	-181.690774	820.014158	2.510576	13.296098	41.799223	41.045110	45.000000	-23.828890	-1170.535223	-2815.874628	32.323349	46.930332	731.160233	6.140728	18.367890	11.046698	7.632749	-45.000000	-38.564280	45.000000	-45.000000	-627.721638	-3691.727607	134.448569	-180.000000	731.805957	35.611465	7.257682	-22.800879	
5.4200	41.354393	10.475579	11.959007	-183.375322	821.092910	2.506704	13.248538	41.762741	40.977744	45.000000	-23.939453	-1170.555816	-2815.750209	32.357423	46.951046	731.189145	5.771972	18.407125	10.993137	7.693185	-45.000000	-38.579284	45.000000	-45.000000	-627.545377	-3691.678906	134.496534	-180.000000	731.793350	35.478828	7.256168	-22.816595	
5.4300	41.325854	10.382058	11.878317	-185.041442	822.151624	2.512721	13.204868	41.728858	40.903329	45.000000	-24.073645	-1170.564005	-2815.619634	32.395320	46.977014	731.222065	5.397191	18.446206	10.942405	7.756754	-45.000000	-38.590140	45.000000	-45.000000	-627.374076	-3691.633796	134.549607	-180.000000	731.775566	35.362336	7.248666	-22.831352	
5.4400	41.298727	10.285852	11.795241	-186.688758	823.190247	2.528824	13.157453	41.690021	40.835315	45.000000	-24.197002	-1170.575444	-2815.500485	32.425474	46.993820	731.240429	5.021307	18.482607	10.889844	7.814554	-45.000000	-38.603086	45.000000	-45.000000	-627.202078	-3691.592238	134.598060	-180.000000	731.756784	35.268397	7.237286	-22.849523	
5.4500	41.275679	10.183339	11.699812	-188.317308	824.208670	2.554951	13.107080	41.643443	40.770499	45.000000	-24.303950	-1170.595397	-2815.392973	32.452385	47.000589	731.251346	4.649632	18.518553	10.830805	7.865564	-45.000000	-38.620587	45.000000	-45.000000	-627.028943	-3691.551497	134.636480	-180.000000	731.743794	35.200404	7.222614	-22.873029	
5.4600	41.258627	10.071174	11.586803	-189.927355	825.206564	2.590744	13.051699	41.589994	40.711644	45.000000	-24.386501	-1170.626238	-2815.299765	32.475711	46.995472	731.246872	4.290413	18.552908	10.764258	7.906419	-45.000000	-38.645624	45.000000	-45.000000	-626.855695	-3691.509442	134.661601	-180.000000	731.736002	35.160630	7.206416	-22.902968	
5.4700	41.245457	9.956603	11.463585	-191.519701	826.183560	2.635506	12.995925	41.534300	40.650798	45.000000	-24.461653	-1170.661587	-2815.213027	32.499585	46.984708	731.239280	3.948028	18.587325	10.693206	7.942030	-45.000000	-38.671988	45.000000	-45.000000	-626.684750	-3691.466739	134.679669	-180.000000	731.734318	35.147853	7.187152	-22.936801	
5.4800	41.234596	9.841614	11.333991	-193.095470	827.139175	2.688261	12.940801	41.478389	40.587671	45.000000	-24.538020	-1170.697232	-2815.128080	32.525196	46.969195	731.228817	3.624126	18.621267	10.620437	7.975147	-45.000000	-38.698596	45.000000	-45.000000	-626.517532	-3691.423680	134.693248	-180.000000	731.734905	35.160111	7.165312	-22.972867	
5.4900	41.223578	9.735200	11.210894	-194.655808	828.072741	2.747815	12.891221	41.426789	40.516193	45.000000	-24.635568	-1170.725445	-2815.035670	32.554744	46.952798	731.224167	3.315937	18.654992	10.550022	8.010592	-45.000000	-38.722150	45.000000	-45.000000	-626.355532	-3691.385885	134.713803	-180.000000	731.736656	35.194022	7.140125	-23.008630	
5.5000	41.213719	9.631998	11.087101	-196.201853	828.983585	2.812857	12.845201	41.377681	40.439713	45.000000	-24.750259	-1170.746457	-2814.936854	32.587363	46.932608	731.221151	3.020530	18.687819	10.482453	8.047525	-45.000000	-38.745114	45.000000	-45.000000	-626.199976	-3691.352357	134.736020	-180.000000	731.736371	35.247207	7.113023	-23.044202	
5.5100	41.202290	9.538881	10.973552	-197.734436	829.871006	2.882023	12.804674	41.333475	40.355721	45.000000	-24.889993	-1170.757770	-2814.830330	32.620847	46.913336	731.226282	2.734743	18.720222	10.419372	8.086248	-45.000000	-38.764620	45.000000	-45.000000	-626.050626	-3691.327440	134.768633	-180.000000	731.734596	35.316852	7.083154	-23.078358	
5.5200	41.190942	9.446789	10.860015	-199.254590	830.734702	2.953994	12.765744	41.285661	40.272071	45.000000	-25.039241	-1170.765568	-2814.725435	32.652901	46.889714	731.231019	2.455891	18.751354	10.356387	8.125718	-45.000000	-38.782965	45.000000	-45.000000	-625.903655	-3691.306580	134.800026	-180.000000	731.729265	35.401539	7.052359	-23.112356	
5.5300	41.178176	9.361840	10.754585	-200.763388	831.574643	3.027599	12.730098	41.242319	40.182152	45.000000	-25.201449	-1170.767855	-2814.618915	32.684893	46.868513	731.240709	2.182542	18.781710	10.293591	8.164072	-45.000000	-38.797525	45.000000	-45.000000	-625.760116	-3691.291259	134.838893	-180.000000	731.723460	35.499313	7.019911	-23.146188	
5.5400	41.167649	9.273516	10.644715	-202.262348	832.391236	3.101920	12.694626	41.191129	40.095280	45.000000	-25.361901	-1170.772338	-2814.518263	32.715700	46.846960	731.248500	1.913535	18.810520	10.227009	8.202286	-45.000000	-38.811800	45.000000	-45.000000	-625.615695	-3691.276905	134.871904	-180.000000	731.716931	35.609807	6.987332	-23.181208	
5.5500	41.155851	9.192152	10.545668	-203.752906	833.184861	3.176361	12.662022	41.148470	40.000135	45.000000	-25.532520	-1170.771129	-2814.417438	32.745084	46.835232	731.260268	1.649249	18.837867	10.160219	8.238568	-45.000000	-38.822538	45.000000	-45.000000	-625.476084	-3691.267771	134.915405	-180.000000	731.711235	35.732629	6.952126	-23.215983	
5.5600	41.147126	9.107552	10.444347	-205.236466	833.955848	3.250651	12.629183	41.092159	39.912354	45.000000	-25.698436	-1170.773881	-2814.326642	32.770478	46.825577	731.270082	1.388782	18.863130	10.088690	8.277316	-45.000000	-38.833369	45.000000	-45.000000	-625.331434	-3691.260716	134.953241	-180.000000	731.705818	35.869854	6.915499	-23.251640	
5.5700	41.135523	9.033947	10.354100	-206.713746	834.704137	3.324754	12.598284	41.049998	39.814556	45.000000	-25.872854	-1170.769359	-2814.234896	32.795441	46.828050	731.282222	1.135448	18.886494	10.018383	8.313392	-45.000000	-38.837884	45.000000	-45.000000	-625.193929	-3691.259790	135.003508	-180.000000	731.702644	36.023264	6.872893	-23.286350	
5.5800	41.122925	8.958268	10.259356	-208.184643	835.429464	3.398657	12.567012	40.985186	39.731653	45.000000	-26.043037	-1170.770287	-2814.156409	32.813511	46.829725	731.288489	0.890397	18.906697	9.942776	8.354070	-45.000000	-38.845072	45.000000	-45.000000	-625.049521	-3691.262378	135.043924	-180.000000	731.699259	36.198103	6.826844	-23.321321	
5.5900	41.101980	8.899626	10.183132	-209.647795	836.131404	3.472157	12.539190	40.933717	39.642547	45.000000	-26.230654	-1170.761573	-2814.077859	32.825841	46.837323	731.291802	0.658130	18.923568	9.870215	8.394247	-45.000000	-38.851359	45.000000	-45.000000	-624.913530	-3691.273377	135.101520	-180.000000	731.697420	36.399020	6.771720	-23.354237	
5.6000	41.080281	8.833330	10.097568	-211.100852	836.809845	3.544720	12.510874	40.861209	39.564637	45.000000	-26.415359	-1170.755745	-2814.008581	32.838133	46.835371	731.288280	0.440442	18.937477	9.793684	8.439219	-45.000000	-38.860745	45.000000	-45.000000	-624.772106	-3691.284693	135.145212	-180.000000	731.692650	36.631968	6.712202	-23.387908	
5.6100	41.052761	8.787418	10.031205	-212.540567	837.465112	3.615463	12.483767	40.815965	39.474071	45.000000	-26.615257	-1170.740652	-2813.929368	32.844491	46.837810	731.292562	0.244774	18.950984	9.727674	8.476210	-45.000000	-38.867683	45.000000	-45.000000	-624.646117	-3691.303890	135.211946	-180.000000	731.693394	36.896968	6.639641	-23.419206	
5.6200	41.025710	8.734138	9.960249	-213.963113	838.098095	3.683250	12.457116	40.752064	39.394872	45.000000	-26.810227	-1170.730760	-2813.859695	32.848841	46.827518	731.295644	0.071020	18.962952	9.659250	8.518076	-45.000000	-38.877293	45.000000	-45.000000	-624.513378	-3691.325608	135.267694	-180.000000	731.693572	37.198721	6.562091	-23.451181	
5.6300	40.996027	8.694062	9.907359	-215.364300	838.710023	3.746896	12.433089	40.707977	39.305303	45.000000	-27.013510	-1170.714182	-2813.786947	32.851974	46.813976	731.302128	-0.078181	18.973331	9.599472	8.556433	-45.000000	-38.883171	45.000000	-45.000000	-624.389360	-3691.353908	135.340574	-180.000000	731.698909	37.535664	6.473762	-23.481314	
5.6400	40.972076	8.629583	9.828628	-216.740069	839.302288	3.805432	12.408161	40.646513	39.218534	45.000000	-27.197786	-1170.700825	-2813.723318	32.873532	46.787385	731.302136	-0.205932	18.980963	9.536751	8.599111	-45.000000	-38.884265	45.000000	-45.000000	-624.260015	-3691.374919	135.385267	-180.000000	731.697849	37.906391	6.385384	-23.513077	
5.6500	40.947506	8.574254	9.754943	-218.086928	839.876153	3.858335	12.382571	40.602519	39.124292	45.000000	-27.378403	-1170.685591	-2813.655109	32.895429	46.764717	731.313762	-0.311832	18.988626	9.486323	8.633127	-45.000000	-38.881530	45.000000	-45.000000	-624.141624	-3691.399365	135.440442	-180.000000	731.702168	38.300244	6.289254	-23.542667	
